<mxfile host="app.diagrams.net" modified="2022-12-19T12:20:52.044Z" agent="5.0 (Windows NT 10.0; Win64; x64) AppleWebKit/537.36 (KHTML, like Gecko) Chrome/108.0.0.0 Safari/537.36 Edg/108.0.1462.54" etag="W7poerPsSC4RG2iVPA1L" version="20.4.2" type="github">
  <diagram id="OZgTTzMIZbF1CK1Bnk2v" name="第 1 页">
    <mxGraphModel dx="1562" dy="468" grid="1" gridSize="10" guides="1" tooltips="1" connect="1" arrows="1" fold="1" page="1" pageScale="1" pageWidth="827" pageHeight="1169" math="0" shadow="0">
      <root>
        <mxCell id="0" />
        <mxCell id="1" parent="0" />
        <mxCell id="5_ovZfvBjrPSnjW51LRR-2" value="qmp_migrate_bak" style="rounded=1;whiteSpace=wrap;html=1;fontSize=18;fillColor=#FF9999;" parent="1" vertex="1">
          <mxGeometry x="180" y="80" width="200" height="40" as="geometry" />
        </mxCell>
        <mxCell id="GFPBZxwAyZQfA2ua5w6D-5" style="edgeStyle=orthogonalEdgeStyle;rounded=0;orthogonalLoop=1;jettySize=auto;html=1;exitX=0.5;exitY=1;exitDx=0;exitDy=0;entryX=1;entryY=0.25;entryDx=0;entryDy=0;fontSize=18;" parent="1" source="5_ovZfvBjrPSnjW51LRR-3" target="GFPBZxwAyZQfA2ua5w6D-4" edge="1">
          <mxGeometry relative="1" as="geometry">
            <Array as="points">
              <mxPoint x="280" y="210" />
            </Array>
          </mxGeometry>
        </mxCell>
        <mxCell id="5_ovZfvBjrPSnjW51LRR-3" value="qemu_savevm_header" style="rounded=1;whiteSpace=wrap;html=1;fontSize=18;" parent="1" vertex="1">
          <mxGeometry x="180" y="160" width="200" height="40" as="geometry" />
        </mxCell>
        <mxCell id="5_ovZfvBjrPSnjW51LRR-5" value="qemu_savevm_setup" style="rounded=1;whiteSpace=wrap;html=1;fontSize=18;" parent="1" vertex="1">
          <mxGeometry x="180" y="240" width="200" height="40" as="geometry" />
        </mxCell>
        <mxCell id="5_ovZfvBjrPSnjW51LRR-6" value="qemu_savevm_live_iterate" style="rounded=1;whiteSpace=wrap;html=1;fontSize=18;" parent="1" vertex="1">
          <mxGeometry x="160" y="320" width="240" height="40" as="geometry" />
        </mxCell>
        <mxCell id="5_ovZfvBjrPSnjW51LRR-7" value="postcopy_start" style="rounded=1;whiteSpace=wrap;html=1;fontSize=18;" parent="1" vertex="1">
          <mxGeometry x="180" y="400" width="200" height="40" as="geometry" />
        </mxCell>
        <mxCell id="5_ovZfvBjrPSnjW51LRR-9" value="" style="endArrow=classic;html=1;rounded=0;fontSize=18;entryX=0.5;entryY=0;entryDx=0;entryDy=0;exitX=0.5;exitY=1;exitDx=0;exitDy=0;" parent="1" target="5_ovZfvBjrPSnjW51LRR-3" edge="1" source="5_ovZfvBjrPSnjW51LRR-2">
          <mxGeometry width="50" height="50" relative="1" as="geometry">
            <mxPoint x="380" y="120" as="sourcePoint" />
            <mxPoint x="390" y="130" as="targetPoint" />
          </mxGeometry>
        </mxCell>
        <mxCell id="5_ovZfvBjrPSnjW51LRR-15" value="destination VM" style="rounded=1;whiteSpace=wrap;html=1;fontSize=18;fillColor=#FFFFCC;" parent="1" vertex="1">
          <mxGeometry x="200" y="640" width="160" height="40" as="geometry" />
        </mxCell>
        <mxCell id="GFPBZxwAyZQfA2ua5w6D-6" style="edgeStyle=orthogonalEdgeStyle;rounded=0;orthogonalLoop=1;jettySize=auto;html=1;exitX=1;exitY=0.75;exitDx=0;exitDy=0;entryX=0.5;entryY=0;entryDx=0;entryDy=0;fontSize=18;" parent="1" edge="1">
          <mxGeometry relative="1" as="geometry">
            <mxPoint x="90" y="230" as="sourcePoint" />
            <mxPoint x="280" y="240" as="targetPoint" />
            <Array as="points">
              <mxPoint x="280" y="230" />
            </Array>
          </mxGeometry>
        </mxCell>
        <mxCell id="GFPBZxwAyZQfA2ua5w6D-4" value="backup header" style="rounded=1;whiteSpace=wrap;html=1;fontSize=18;fillColor=#E6FFCC;" parent="1" vertex="1">
          <mxGeometry x="-160" y="200" width="250" height="40" as="geometry" />
        </mxCell>
        <mxCell id="GFPBZxwAyZQfA2ua5w6D-7" value="backup setup" style="rounded=1;whiteSpace=wrap;html=1;fontSize=18;fillColor=#E6FFCC;" parent="1" vertex="1">
          <mxGeometry x="-160" y="280" width="250" height="40" as="geometry" />
        </mxCell>
        <mxCell id="GFPBZxwAyZQfA2ua5w6D-8" style="edgeStyle=orthogonalEdgeStyle;rounded=0;orthogonalLoop=1;jettySize=auto;html=1;exitX=0.5;exitY=1;exitDx=0;exitDy=0;entryX=1;entryY=0.25;entryDx=0;entryDy=0;fontSize=18;" parent="1" edge="1">
          <mxGeometry relative="1" as="geometry">
            <mxPoint x="280" y="280" as="sourcePoint" />
            <mxPoint x="90" y="290" as="targetPoint" />
            <Array as="points">
              <mxPoint x="280" y="290" />
            </Array>
          </mxGeometry>
        </mxCell>
        <mxCell id="GFPBZxwAyZQfA2ua5w6D-9" style="edgeStyle=orthogonalEdgeStyle;rounded=0;orthogonalLoop=1;jettySize=auto;html=1;exitX=1;exitY=0.75;exitDx=0;exitDy=0;entryX=0.5;entryY=0;entryDx=0;entryDy=0;fontSize=18;" parent="1" edge="1">
          <mxGeometry relative="1" as="geometry">
            <mxPoint x="90" y="310" as="sourcePoint" />
            <mxPoint x="280" y="320" as="targetPoint" />
            <Array as="points">
              <mxPoint x="280" y="310" />
            </Array>
          </mxGeometry>
        </mxCell>
        <mxCell id="GFPBZxwAyZQfA2ua5w6D-10" value="backup precopy pages" style="rounded=1;whiteSpace=wrap;html=1;fontSize=18;fillColor=#E6FFCC;" parent="1" vertex="1">
          <mxGeometry x="-160" y="360" width="250" height="40" as="geometry" />
        </mxCell>
        <mxCell id="GFPBZxwAyZQfA2ua5w6D-11" style="edgeStyle=orthogonalEdgeStyle;rounded=0;orthogonalLoop=1;jettySize=auto;html=1;exitX=0.5;exitY=1;exitDx=0;exitDy=0;entryX=1;entryY=0.25;entryDx=0;entryDy=0;fontSize=18;" parent="1" edge="1">
          <mxGeometry relative="1" as="geometry">
            <mxPoint x="280" y="360" as="sourcePoint" />
            <mxPoint x="90" y="370" as="targetPoint" />
            <Array as="points">
              <mxPoint x="280" y="370" />
            </Array>
          </mxGeometry>
        </mxCell>
        <mxCell id="GFPBZxwAyZQfA2ua5w6D-12" style="edgeStyle=orthogonalEdgeStyle;rounded=0;orthogonalLoop=1;jettySize=auto;html=1;exitX=1;exitY=0.75;exitDx=0;exitDy=0;entryX=0.5;entryY=0;entryDx=0;entryDy=0;fontSize=18;" parent="1" edge="1">
          <mxGeometry relative="1" as="geometry">
            <mxPoint x="90" y="390" as="sourcePoint" />
            <mxPoint x="280" y="400" as="targetPoint" />
            <Array as="points">
              <mxPoint x="280" y="390" />
            </Array>
          </mxGeometry>
        </mxCell>
        <mxCell id="OqRteWUVSWdd330q7b4b-7" style="edgeStyle=orthogonalEdgeStyle;rounded=0;orthogonalLoop=1;jettySize=auto;html=1;exitX=0.5;exitY=1;exitDx=0;exitDy=0;entryX=0.5;entryY=0;entryDx=0;entryDy=0;" edge="1" parent="1" source="Wa7YZDis3gOsCpSppj7i-1" target="OqRteWUVSWdd330q7b4b-6">
          <mxGeometry relative="1" as="geometry" />
        </mxCell>
        <mxCell id="Wa7YZDis3gOsCpSppj7i-1" value="backup dirty pages" style="rounded=1;whiteSpace=wrap;html=1;fontSize=18;fillColor=#E6FFCC;" parent="1" vertex="1">
          <mxGeometry x="-160" y="440" width="250" height="40" as="geometry" />
        </mxCell>
        <mxCell id="Wa7YZDis3gOsCpSppj7i-2" style="edgeStyle=orthogonalEdgeStyle;rounded=0;orthogonalLoop=1;jettySize=auto;html=1;exitX=0.5;exitY=1;exitDx=0;exitDy=0;entryX=1;entryY=0.25;entryDx=0;entryDy=0;fontSize=18;" parent="1" edge="1">
          <mxGeometry relative="1" as="geometry">
            <mxPoint x="280" y="440" as="sourcePoint" />
            <mxPoint x="90" y="450" as="targetPoint" />
            <Array as="points">
              <mxPoint x="280" y="450" />
            </Array>
          </mxGeometry>
        </mxCell>
        <mxCell id="Wa7YZDis3gOsCpSppj7i-6" value="" style="shape=image;html=1;verticalAlign=top;verticalLabelPosition=bottom;labelBackgroundColor=#ffffff;imageAspect=0;aspect=fixed;image=https://cdn3.iconfinder.com/data/icons/flat-actions-icons-9/512/Tick_Mark-128.png;fontSize=18;fillColor=#E6FFCC;" parent="1" vertex="1">
          <mxGeometry x="-160" y="192" width="48" height="48" as="geometry" />
        </mxCell>
        <mxCell id="Wa7YZDis3gOsCpSppj7i-7" value="" style="shape=image;html=1;verticalAlign=top;verticalLabelPosition=bottom;labelBackgroundColor=#ffffff;imageAspect=0;aspect=fixed;image=https://cdn3.iconfinder.com/data/icons/flat-actions-icons-9/512/Tick_Mark-128.png;fontSize=18;fillColor=#E6FFCC;" parent="1" vertex="1">
          <mxGeometry x="-160" y="272" width="48" height="48" as="geometry" />
        </mxCell>
        <mxCell id="V4uyyiU11S5AQbFgXYAr-1" value="" style="shape=image;html=1;verticalAlign=top;verticalLabelPosition=bottom;labelBackgroundColor=#ffffff;imageAspect=0;aspect=fixed;image=https://cdn3.iconfinder.com/data/icons/flat-actions-icons-9/512/Tick_Mark-128.png;fontSize=18;fillColor=#E6FFCC;" parent="1" vertex="1">
          <mxGeometry x="-160" y="352" width="48" height="48" as="geometry" />
        </mxCell>
        <mxCell id="V4uyyiU11S5AQbFgXYAr-2" value="" style="shape=image;html=1;verticalAlign=top;verticalLabelPosition=bottom;labelBackgroundColor=#ffffff;imageAspect=0;aspect=fixed;image=https://cdn3.iconfinder.com/data/icons/flat-actions-icons-9/512/Tick_Mark-128.png;fontSize=18;fillColor=#E6FFCC;" parent="1" vertex="1">
          <mxGeometry x="-160" y="432" width="48" height="48" as="geometry" />
        </mxCell>
        <mxCell id="OqRteWUVSWdd330q7b4b-5" style="edgeStyle=orthogonalEdgeStyle;rounded=0;orthogonalLoop=1;jettySize=auto;html=1;exitX=0.5;exitY=1;exitDx=0;exitDy=0;" edge="1" parent="1" source="OqRteWUVSWdd330q7b4b-2">
          <mxGeometry relative="1" as="geometry">
            <mxPoint x="280" y="560" as="targetPoint" />
          </mxGeometry>
        </mxCell>
        <mxCell id="OqRteWUVSWdd330q7b4b-2" value="qemu_savevm_live_iterate" style="rounded=1;whiteSpace=wrap;html=1;fontSize=18;" vertex="1" parent="1">
          <mxGeometry x="160" y="480" width="240" height="40" as="geometry" />
        </mxCell>
        <mxCell id="OqRteWUVSWdd330q7b4b-3" style="edgeStyle=orthogonalEdgeStyle;rounded=0;orthogonalLoop=1;jettySize=auto;html=1;exitX=1;exitY=0.75;exitDx=0;exitDy=0;entryX=0.5;entryY=0;entryDx=0;entryDy=0;fontSize=18;" edge="1" parent="1">
          <mxGeometry relative="1" as="geometry">
            <mxPoint x="90" y="470" as="sourcePoint" />
            <mxPoint x="280" y="480" as="targetPoint" />
            <Array as="points">
              <mxPoint x="280" y="470" />
            </Array>
          </mxGeometry>
        </mxCell>
        <mxCell id="OqRteWUVSWdd330q7b4b-10" style="edgeStyle=orthogonalEdgeStyle;rounded=0;orthogonalLoop=1;jettySize=auto;html=1;exitX=0.5;exitY=1;exitDx=0;exitDy=0;entryX=0.5;entryY=0;entryDx=0;entryDy=0;" edge="1" parent="1" source="OqRteWUVSWdd330q7b4b-6" target="OqRteWUVSWdd330q7b4b-9">
          <mxGeometry relative="1" as="geometry" />
        </mxCell>
        <mxCell id="OqRteWUVSWdd330q7b4b-6" value="backup vmds" style="rounded=1;whiteSpace=wrap;html=1;fontSize=18;fillColor=#E6FFCC;" vertex="1" parent="1">
          <mxGeometry x="-160" y="520" width="250" height="40" as="geometry" />
        </mxCell>
        <mxCell id="OqRteWUVSWdd330q7b4b-8" value="" style="shape=image;html=1;verticalAlign=top;verticalLabelPosition=bottom;labelBackgroundColor=#ffffff;imageAspect=0;aspect=fixed;image=https://cdn3.iconfinder.com/data/icons/flat-actions-icons-9/512/Tick_Mark-128.png;fontSize=18;fillColor=#E6FFCC;" vertex="1" parent="1">
          <mxGeometry x="-160" y="512" width="48" height="48" as="geometry" />
        </mxCell>
        <mxCell id="OqRteWUVSWdd330q7b4b-9" value="VM backup" style="rounded=1;whiteSpace=wrap;html=1;fontSize=18;fillColor=#A9C4EB;" vertex="1" parent="1">
          <mxGeometry x="-115" y="600" width="160" height="40" as="geometry" />
        </mxCell>
        <mxCell id="OqRteWUVSWdd330q7b4b-12" style="edgeStyle=orthogonalEdgeStyle;rounded=0;orthogonalLoop=1;jettySize=auto;html=1;exitX=0.5;exitY=1;exitDx=0;exitDy=0;entryX=0.5;entryY=0;entryDx=0;entryDy=0;" edge="1" parent="1" source="OqRteWUVSWdd330q7b4b-11" target="5_ovZfvBjrPSnjW51LRR-15">
          <mxGeometry relative="1" as="geometry" />
        </mxCell>
        <mxCell id="OqRteWUVSWdd330q7b4b-11" value="qemu_savevm_complete_postcopy" style="rounded=1;whiteSpace=wrap;html=1;fontSize=18;" vertex="1" parent="1">
          <mxGeometry x="120" y="560" width="320" height="40" as="geometry" />
        </mxCell>
      </root>
    </mxGraphModel>
  </diagram>
</mxfile>
